<svg class="icon icon-close" xmlns="http://www.w3.org/2000/svg" width="15" height="15" viewBox="0 0 15 15" fill="none">
<path d="M8.87423 7.51266L14.7149 1.67178C15.095 1.29185 15.095 0.677564 14.7149 0.297639C14.335 -0.0822859 13.7207 -0.0822859 13.3408 0.297639L7.49992 6.13852L1.65921 0.297639C1.27911 -0.0822859 0.665002 -0.0822859 0.285077 0.297639C-0.0950257 0.677564 -0.0950257 1.29185 0.285077 1.67178L6.12578 7.51266L0.285077 13.3535C-0.0950257 13.7335 -0.0950257 14.3477 0.285077 14.7277C0.474417 14.9172 0.72337 15.0124 0.972145 15.0124C1.22092 15.0124 1.4697 14.9172 1.65921 14.7277L7.49992 8.88679L13.3408 14.7277C13.5303 14.9172 13.7791 15.0124 14.0279 15.0124C14.2766 15.0124 14.5254 14.9172 14.7149 14.7277C15.095 14.3477 15.095 13.7335 14.7149 13.3535L8.87423 7.51266Z" fill="black"/>
</svg>